<svg id="visual" viewBox="0 0 900 600" xmlns="http://www.w3.org/2000/svg" version="1.1" preserveAspectRatio="none"><path d="M0 457L150 449L300 409L450 412L600 455L750 468L900 397L900 601L750 601L600 601L450 601L300 601L150 601L0 601Z" fill="#f7f8f9"></path><path d="M0 447L150 499L300 451L450 468L600 439L750 464L900 443L900 601L750 601L600 601L450 601L300 601L150 601L0 601Z" fill="#f4f5f7"></path><path d="M0 499L150 489L300 509L450 538L600 528L750 506L900 499L900 601L750 601L600 601L450 601L300 601L150 601L0 601Z" fill="#edeef1"></path><path d="M0 569L150 544L300 528L450 553L600 541L750 577L900 558L900 601L750 601L600 601L450 601L300 601L150 601L0 601Z" fill="#e0e3e8"></path></svg>